<svg id="visual" viewBox="0 0 900 600" width="900" height="600" xmlns="http://www.w3.org/2000/svg"><path d="M0 231L10 223C20 215 40 199 60 188C80 177 100 171 120 174C140 177 160 189 180 179C200 169 220 137 240 106.7C260 76.3 280 47.7 300 35C320 22.3 340 25.7 360 35.3C380 45 400 61 420 86.3C440 111.7 460 146.3 480 149.7C500 153 520 125 540 115C560 105 580 113 600 119.5C620 126 640 131 660 123.7C680 116.3 700 96.7 720 88.2C740 79.7 760 82.3 780 112.8C800 143.3 820 201.7 840 243.8C860 286 880 312 890 325L900 338L900 0L890 0C880 0 860 0 840 0C820 0 800 0 780 0C760 0 740 0 720 0C700 0 680 0 660 0C640 0 620 0 600 0C580 0 560 0 540 0C520 0 500 0 480 0C460 0 440 0 420 0C400 0 380 0 360 0C340 0 320 0 300 0C280 0 260 0 240 0C220 0 200 0 180 0C160 0 140 0 120 0C100 0 80 0 60 0C40 0 20 0 10 0L0 0Z" fill="#00d07a"/></svg>
